HIERARCHY
ROOT hip
{
	OFFSET 0.000000 0.000000 0.000000 
	CHANNELS 6 Xposition Yposition Zposition Xrotation Zrotation Yrotation
	JOINT abdomen
	{
		OFFSET 0.000000 3.402643 0.000000 
		CHANNELS 3 Xrotation Zrotation Yrotation
		JOINT chest
		{
			OFFSET 0.000000 8.438565 -0.680529 
			CHANNELS 3 Xrotation Zrotation Yrotation
			JOINT neck
			{
				OFFSET 0.000000 10.207942 -0.272212 
				CHANNELS 3 Xrotation Zrotation Yrotation
				JOINT head
				{
					OFFSET 0.000000 3.130431 0.000000 
					CHANNELS 3 Xrotation Zrotation Yrotation
					End Site
					{
						OFFSET 0.000000 3.130435 0.000000 
					}
				}
			}
			JOINT lCollar
			{
				OFFSET 3.470700 6.669187 -0.816635 
				CHANNELS 3 Yrotation Zrotation Xrotation
				JOINT lShldr
				{
					OFFSET 3.198488 0.000000 0.000000 
					CHANNELS 3 Zrotation Yrotation Xrotation
					JOINT lForeArm
					{
						OFFSET 10.139888 0.000000 0.000000 
						CHANNELS 3 Yrotation Zrotation Xrotation
						JOINT lHand
						{
							OFFSET 8.370511 0.000000 0.000000 
							CHANNELS 3 Zrotation Yrotation Xrotation
							End Site
							{
								OFFSET 4.083176 0.000000 0.000000 
							}
						}
					}
				}
			}
			JOINT rCollar
			{
				OFFSET -3.470700 6.669187 -0.816635 
				CHANNELS 3 Yrotation Zrotation Xrotation
				JOINT rShldr
				{
					OFFSET -3.198488 0.000000 0.000000 
					CHANNELS 3 Zrotation Yrotation Xrotation
					JOINT rForeArm
					{
						OFFSET -10.139888 0.000000 0.000000 
						CHANNELS 3 Yrotation Zrotation Xrotation
						JOINT rHand
						{
							OFFSET -8.370511 0.000000 0.000000 
							CHANNELS 3 Zrotation Yrotation Xrotation
							End Site
							{
								OFFSET -4.083176 0.000000 0.000000 
							}
						}
					}
				}
			}
		}
	}
	JOINT lThigh
	{
		OFFSET 5.308129 -1.633274 1.361059 
		CHANNELS 3 Xrotation Zrotation Yrotation
		JOINT lShin
		{
			OFFSET -2.041588 -20.007561 0.000000 
			CHANNELS 3 Xrotation Zrotation Yrotation
			JOINT lFoot
			{
				OFFSET 0.000000 -19.190928 -1.224953 
				CHANNELS 3 Xrotation Yrotation Zrotation
				End Site
				{
					OFFSET 0.000000 -2.449906 4.627600 
				}
			}
		}
	}
	JOINT rThigh
	{
		OFFSET -5.308129 -1.633274 1.361059 
		CHANNELS 3 Xrotation Zrotation Yrotation
		JOINT rShin
		{
			OFFSET 2.041588 -20.007561 0.000000 
			CHANNELS 3 Xrotation Zrotation Yrotation
			JOINT rFoot
			{
				OFFSET 0.000000 -19.190928 -1.224953 
				CHANNELS 3 Xrotation Yrotation Zrotation
				End Site
				{
					OFFSET 0.000000 -2.449906 4.627600 
				}
			}
		}
	}
}
MOTION
Frames: 15
Frame Time: 0.016667
-2.173045 47.350891 -13.056281 1.099908 0.096736 -7.871099 0.000000 0.000000 0.000000 22.022390 8.010781 4.745246 -20.685150 -5.958291 11.252825 8.350613 4.147659 5.934198 -3.521967 9.154817 6.304141 -81.571693 -7.299980 -15.385336 -16.929594 5.186762 30.171412 -1.631798 6.477069 -8.073045 3.089181 -14.089146 8.026228 73.140175 1.944373 4.554268 16.348471 -15.994144 69.667068 14.297620 -2.441968 -7.026143 -12.537294 26.172911 16.010937 33.988014 -3.167772 -35.291599 4.320713 0.196506 -10.269933 -12.514838 -3.952644 -12.215981 34.492825 0.981273 -2.955377 -18.058468 0.461281 -2.936701 
-2.142341 47.322197 -13.105055 0.952901 0.029004 -8.105469 0.000000 0.000000 0.000000 22.461609 8.041780 4.761951 -20.608982 -6.891077 11.903221 7.715621 4.906411 5.813156 -3.521967 9.154817 6.304141 -81.212006 -7.646469 -15.507410 -16.980818 5.090575 29.224167 -1.003417 6.052245 -8.067933 3.089181 -14.089146 8.026228 72.987823 3.131904 4.189317 16.697468 -16.246777 69.269424 13.890108 -3.183864 -7.203059 -12.607483 26.210976 16.043507 34.624634 -3.059224 -35.039757 4.074227 0.211918 -9.901872 -12.543925 -3.893830 -12.121752 34.665897 0.908015 -2.851588 -18.225906 0.462593 -2.892493 
-2.111593 47.293537 -13.153853 0.806454 -0.038648 -8.349613 0.000000 0.000000 0.000000 22.891033 8.061223 4.760125 -20.544598 -7.818573 12.559030 7.077423 5.675285 5.682503 -3.521967 9.154817 6.304141 -80.851265 -7.983590 -15.624418 -17.034388 4.991565 28.269833 -0.383358 5.617122 -8.074619 3.089181 -14.089146 8.026228 72.827576 4.329786 3.824795 17.047543 -16.497355 68.873253 13.486979 -3.935769 -7.380940 -12.685246 26.247070 16.071667 35.242107 -2.952271 -34.794506 3.831766 0.197367 -9.522527 -12.585810 -3.856360 -12.027378 34.829491 0.849223 -2.763305 -18.412468 0.454731 -2.853634 
-2.040614 47.305275 -13.223984 1.056125 -0.009659 -8.466797 0.000000 0.000000 0.000000 23.055283 7.683121 5.119339 -20.875948 -7.312831 12.219189 7.088910 5.247171 5.737097 -3.521967 9.154817 6.304141 -80.300163 -8.255536 -16.000494 -18.113972 4.668285 29.359434 -0.867080 5.519140 -8.043386 3.089181 -14.089146 8.026228 72.929459 5.168201 3.430071 17.546110 -16.787077 69.286583 13.386825 -6.058911 -7.775223 -13.446033 26.176296 16.020418 35.975216 -3.034288 -34.225929 3.912763 0.224878 -9.655114 -12.856119 -4.001272 -12.146164 34.724052 1.011236 -2.623831 -18.374830 0.451716 -2.799521 
-1.969637 47.317024 -13.294111 1.302763 0.038625 -8.583982 0.000000 0.000000 0.000000 23.200068 7.284638 5.471929 -21.212534 -6.795763 11.891205 7.108516 4.819221 5.782301 -3.521967 9.154817 6.304141 -79.749565 -8.521093 -16.381691 -19.194586 4.322031 30.429207 -1.349985 5.422313 -8.002302 3.089181 -14.089146 8.026228 73.038094 5.998375 3.043428 18.045946 -17.079750 69.706917 13.301298 -8.181005 -8.174815 -14.217430 26.127048 15.967402 36.718159 -3.131337 -33.635239 3.985763 0.243895 -9.790805 -13.149649 -4.167542 -12.264290 34.607605 1.167541 -2.467454 -18.347055 0.444364 -2.736891 
-1.900377 47.338993 -13.361524 1.461833 0.019298 -8.867187 0.000000 0.000000 0.000000 23.698460 6.863700 6.003068 -21.822495 -6.304412 11.633161 7.135581 4.566211 5.829358 -3.521967 9.154817 6.304141 -79.089989 -8.455800 -16.642370 -21.506491 3.140387 31.038118 -1.179287 5.455829 -8.014878 3.089181 -14.089146 8.026228 73.184975 6.980331 2.526616 18.458309 -17.381142 70.325798 13.505217 -8.121767 -8.156571 -14.753815 26.095034 16.101511 37.215714 -3.449748 -33.571297 3.424867 0.259859 -9.069169 -13.362198 -4.165940 -12.211693 34.454472 1.141768 -2.288346 -18.113674 0.425731 -2.679563 
-1.831102 47.360939 -13.428916 1.621094 0.000000 -9.150390 0.000000 0.000000 0.000000 24.187271 6.422349 6.526196 -22.434978 -5.802476 11.377088 7.153203 4.313165 5.886245 -3.521967 9.154817 6.304141 -78.431793 -8.385693 -16.902283 -23.809786 1.949331 31.592964 -1.009974 5.499140 -8.028295 3.089181 -14.089146 8.026228 73.318245 7.956416 2.015505 18.868500 -17.672630 70.944534 13.700772 -8.073575 -8.140151 -15.301647 26.080040 16.253611 37.721497 -3.742453 -33.514313 2.861344 0.270319 -8.367461 -13.588584 -4.157417 -12.140777 34.291721 1.122634 -2.117883 -17.879955 0.399179 -2.626729 
-1.747430 47.365932 -13.476267 1.526645 -0.019266 -9.453128 0.000000 0.000000 0.000000 24.701307 6.020718 6.741438 -22.506920 -5.594326 11.244987 6.715310 4.118665 5.914012 -3.521967 9.154817 6.304141 -77.714661 -8.407242 -17.027094 -25.466175 0.980422 31.672472 -1.202263 5.541291 -8.028035 3.089181 -14.089146 8.026228 73.341072 9.174956 1.607514 19.157026 -17.918999 70.831261 13.479798 -7.795712 -8.091884 -15.534884 25.841320 16.326767 37.915470 -3.973460 -35.037338 1.931266 0.282516 -7.151907 -13.616545 -4.205498 -12.100071 34.282814 1.083602 -1.867189 -17.665726 0.394408 -2.594947 
-1.663708 47.370899 -13.523680 1.443829 -0.048121 -9.765631 0.000000 0.000000 0.000000 25.205332 5.608439 6.947759 -22.580744 -5.385780 11.123703 6.269147 3.933827 5.951600 -3.521967 9.154817 6.304141 -76.997421 -8.426977 -17.153648 -27.131540 0.025154 31.718508 -1.385248 5.594777 -8.016628 3.089181 -14.089146 8.026228 73.356796 10.384881 1.201219 19.444798 -18.167063 70.723160 13.261546 -7.524843 -8.055867 -15.769444 25.627893 16.439249 38.110760 -4.182759 -36.611771 1.027833 0.321115 -5.928870 -13.658760 -4.246465 -12.041079 34.264107 1.044747 -1.616952 -17.441465 0.390383 -2.573751 
-1.531680 47.348686 -13.632180 1.747756 0.057724 -9.882817 0.000000 0.000000 0.000000 25.294571 5.108305 6.739572 -22.830578 -5.270970 11.111273 5.837811 4.118519 5.933492 -3.521967 9.154817 6.304141 -76.224541 -8.416603 -17.450380 -28.853987 -0.978912 32.103745 -1.508706 5.843837 -8.022481 3.089181 -14.089146 8.026228 73.405685 11.797713 0.908123 19.720688 -18.383720 71.457764 13.397354 -7.463861 -8.035026 -16.678066 25.063412 16.182981 38.125233 -4.371589 -38.050148 0.607930 0.313610 -5.365530 -14.281465 -4.469503 -12.074904 34.552124 1.005218 -1.457891 -17.373022 0.381539 -2.567328 
-1.399678 47.326466 -13.740666 2.041512 0.163498 -9.990248 0.000000 0.000000 0.000000 25.373840 4.609073 6.541142 -23.069809 -5.156324 11.090063 5.395581 4.293511 5.915456 -3.521967 9.154817 6.304141 -75.452003 -8.411661 -17.742903 -30.567146 -1.994585 32.457481 -1.623520 6.093989 -8.037976 3.089181 -14.089146 8.026228 73.444000 13.217926 0.605190 19.991510 -18.601377 72.197357 13.534437 -7.400736 -8.023342 -17.576443 24.497362 15.927978 38.168369 -4.564378 -39.464237 0.202861 0.289791 -4.827449 -14.905519 -4.693856 -12.086872 34.839787 0.991765 -1.301436 -17.314495 0.383915 -2.565626 
-1.279433 47.289200 -13.847113 1.909522 -0.028827 -10.273441 0.000000 0.000000 0.000000 25.968386 4.319161 6.274077 -22.916338 -5.229645 11.277463 4.457652 4.526156 5.976148 -3.521967 9.154817 6.304141 -74.614151 -8.731304 -17.798058 -31.454622 -2.630486 32.217335 -1.488945 6.240758 -8.053910 3.089181 -14.089146 8.026228 73.368301 14.994472 0.804548 20.097879 -18.670832 72.248291 13.037705 -7.295256 -8.021901 -17.801050 24.175432 15.930907 37.931400 -4.712672 -40.909149 0.185171 0.301109 -4.750354 -15.042916 -4.615859 -12.007501 35.041153 0.897952 -1.163274 -17.217772 0.371667 -2.516601 
-1.159168 47.251995 -13.953562 1.769704 -0.220801 -10.566515 0.000000 0.000000 0.000000 26.553078 4.028322 5.997298 -22.770273 -5.293423 11.455153 3.510668 4.768542 6.027209 -3.521967 9.154817 6.304141 -73.772911 -9.050845 -17.866070 -32.349640 -3.250627 31.957390 -1.347193 6.398448 -8.077827 3.089181 -14.089146 8.026228 73.308777 16.759861 1.011744 20.191437 -18.740564 72.284477 12.542247 -7.199789 -8.023582 -18.017639 23.867020 15.922364 37.713902 -4.881219 -42.322258 0.162645 0.299630 -4.667725 -15.192962 -4.530103 -11.919726 35.241745 0.810443 -1.014188 -17.121149 0.347835 -2.451904 
-1.018858 47.279499 -14.063480 1.743386 -0.383655 -10.840121 0.000000 0.000000 0.000000 27.336752 3.762487 6.090891 -23.013510 -5.293606 11.445432 2.821832 4.992888 5.921023 -3.521967 9.154817 6.304141 -73.278236 -10.762346 -17.365131 -31.452198 -2.920919 31.967241 -1.073258 6.525651 -8.095989 3.089181 -14.089146 8.026228 73.102470 18.396818 0.865333 20.424311 -18.937811 72.853897 13.174565 -7.311194 -8.017126 -18.465954 23.552473 15.789163 37.706844 -5.089227 -41.702965 0.300403 0.302364 -4.967475 -15.223084 -4.482008 -11.874990 34.978897 0.835657 -0.796234 -16.651011 0.339924 -2.486891 
-0.878526 47.306957 -14.173418 1.710740 -0.555785 -11.113889 0.000000 0.000000 0.000000 28.139902 3.486926 6.185404 -23.256744 -5.293787 11.435709 2.122400 5.217303 5.815782 -3.521967 9.154817 6.304141 -72.784866 -12.466025 -16.883255 -30.569878 -2.593168 31.977242 -0.801930 6.662705 -8.123899 3.089181 -14.089146 8.026228 72.899406 20.032001 0.712269 20.652830 -19.134266 73.433769 13.799602 -7.432082 -8.024435 -18.893967 23.226990 15.668165 37.690994 -5.266605 -41.092083 0.450367 0.294110 -5.291772 -15.248530 -4.440635 -11.858423 34.714127 0.830108 -0.519402 -16.182045 0.360679 -2.505884 
